<?xml version="1.0" standalone="no"?>
<!DOCTYPE svg PUBLIC "-//W3C//DTD SVG 20010904//EN"
 "http://www.w3.org/TR/2001/REC-SVG-20010904/DTD/svg10.dtd">
<svg version="1.0" xmlns="http://www.w3.org/2000/svg"
 width="1562.000000pt" height="1562.000000pt" viewBox="0 0 1562.000000 1562.000000"
 preserveAspectRatio="xMidYMid meet">
<metadata>
Created by potrace 1.11, written by Peter Selinger 2001-2013
</metadata>
<g transform="translate(0.000000,1562.000000) scale(0.100000,-0.100000)"
fill="#000000" stroke="none">
<path d="M0 7810 l0 -7810 7810 0 7810 0 0 7810 0 7810 -7810 0 -7810 0 0
-7810z m2415 5527 c292 -49 471 -133 635 -297 100 -99 149 -175 191 -297 72
-208 77 -508 13 -732 -94 -328 -357 -567 -716 -650 -148 -35 -264 -42 -805
-48 l-533 -6 0 -793 0 -794 -100 0 -100 0 0 1821 0 1821 658 -5 c554 -3 673
-6 757 -20z m3233 -1790 c375 -996 682 -1816 682 -1820 0 -4 -48 -6 -107 -5
l-107 3 -261 692 -260 693 -779 -3 -778 -2 -256 -692 -255 -693 -109 0 c-62 0
-108 4 -106 9 2 5 314 824 693 1820 l690 1811 135 0 135 0 683 -1813z m1232
576 c0 -1444 3 -1526 72 -1723 98 -279 320 -474 619 -544 173 -40 428 -45 605
-11 392 74 642 320 721 708 15 74 17 218 20 1445 l4 1362 104 0 105 0 0 -1182
c0 -1191 -7 -1489 -36 -1668 -37 -220 -117 -382 -268 -538 -211 -220 -506
-322 -926 -322 -279 0 -465 37 -655 130 -251 122 -439 351 -510 620 -48 184
-48 187 -52 1613 l-4 1347 101 0 100 0 0 -1237z m3102 -495 l3 -1733 1053 -3
1052 -2 0 -85 0 -85 -1155 0 -1155 0 0 1820 0 1820 100 0 100 0 2 -1732z
m2913 755 c319 -535 582 -973 586 -973 3 0 261 437 574 971 313 534 574 973
580 975 6 3 59 3 118 2 l107 -3 -645 -1080 -645 -1080 0 -737 0 -738 -100 0
-100 0 0 738 0 738 -635 1063 c-349 584 -640 1071 -645 1082 -11 19 -8 20 107
17 l118 -3 580 -972z m-9345 -3357 c274 -50 450 -213 523 -487 l22 -84 0 -980
0 -980 -22 -84 c-36 -135 -86 -225 -173 -311 -84 -84 -155 -124 -285 -162 -69
-19 -102 -23 -240 -22 -118 0 -178 4 -230 17 -233 59 -399 222 -465 459 -34
123 -40 272 -40 1083 0 811 6 960 40 1083 43 153 143 297 259 371 149 96 398
135 611 97z m9000 -16 c111 -32 186 -76 265 -155 154 -153 204 -329 205 -717
l0 -158 -229 0 -229 0 -4 223 c-4 237 -10 271 -61 325 -83 90 -256 95 -351 10
-80 -69 -76 -18 -76 -1063 0 -1024 -3 -982 66 -1051 86 -86 278 -82 361 8 54
57 58 82 61 381 l3 277 231 0 231 0 -6 -277 c-4 -225 -9 -296 -26 -371 -56
-264 -223 -441 -468 -499 -108 -25 -338 -25 -446 0 -183 43 -328 157 -405 317
-50 105 -70 188 -82 333 -12 145 -12 1651 0 1785 12 135 33 219 81 318 85 179
234 289 448 329 111 21 332 13 431 -15z m-10587 -38 c271 -75 417 -259 457
-576 13 -108 13 -1734 0 -1842 -40 -317 -186 -501 -457 -576 -74 -21 -102 -22
-545 -26 l-468 -3 0 1526 0 1526 468 -3 c443 -4 471 -5 545 -26z m3080 1 c2
-16 81 -495 173 -1065 93 -571 171 -1038 174 -1038 3 0 77 478 165 1063 l161
1062 337 3 337 2 0 -1525 0 -1525 -230 0 -230 0 -2 1072 -3 1073 -158 -1050
c-88 -578 -161 -1060 -164 -1072 l-5 -23 -227 0 -226 0 -176 1058 -177 1057
-1 -1057 -1 -1058 -210 0 -210 0 0 1525 0 1525 334 0 334 0 5 -27z m2947 -193
l0 -220 -412 -2 -413 -3 -3 -417 -2 -418 330 0 330 0 0 -220 0 -220 -327 -2
-328 -3 -3 -442 -2 -443 415 0 415 0 0 -220 0 -220 -655 0 -655 0 0 1525 0
1525 655 0 655 0 0 -220z m1094 -677 l241 -892 3 894 2 895 215 0 215 0 0
-1525 0 -1525 -247 2 -246 3 -296 1095 -296 1095 -3 -1098 -2 -1097 -215 0
-215 0 0 1525 0 1525 302 -2 302 -3 240 -892z m2286 677 l0 -220 -412 -2 -413
-3 -3 -417 -2 -418 330 0 330 0 0 -220 0 -220 -327 -2 -328 -3 -3 -442 -2
-443 415 0 415 0 0 -220 0 -220 -655 0 -655 0 0 1525 0 1525 655 0 655 0 0
-220z m2370 -430 l0 -650 275 0 275 0 0 650 0 650 245 0 245 0 0 -1525 0
-1525 -245 0 -245 0 0 655 0 655 -272 -2 -273 -3 -3 -652 -2 -653 -240 0 -240
0 0 1525 0 1525 240 0 240 0 0 -650z m1060 -3405 l0 -105 -6955 0 -6955 0 0
105 0 105 6955 0 6955 0 0 -105z m0 -1975 l0 -1120 -6975 0 -6975 0 0 1120 0
1120 6975 0 6975 0 0 -1120z"/>
<path d="M1200 12335 l0 -847 528 5 c314 3 559 9 607 16 238 34 400 108 538
246 102 103 172 255 198 434 16 115 7 334 -19 432 -64 243 -229 409 -487 494
-159 52 -236 58 -822 62 l-543 5 0 -847z"/>
<path d="M4466 12240 c-196 -522 -356 -952 -356 -955 0 -3 320 -5 710 -5 391
0 710 2 710 3 0 6 -700 1901 -704 1904 -2 2 -164 -424 -360 -947z"/>
<path d="M3287 8587 c-52 -17 -103 -60 -130 -110 l-22 -42 -3 -940 c-2 -855
-1 -944 14 -993 63 -199 386 -203 456 -5 19 56 19 1900 0 1956 -31 87 -106
138 -212 143 -36 2 -82 -2 -103 -9z"/>
<path d="M1430 7475 l0 -1087 178 4 c149 3 182 6 212 22 56 29 88 66 107 120
17 47 18 114 18 941 0 827 -1 894 -18 941 -19 54 -51 91 -107 120 -30 16 -63
19 -212 22 l-178 4 0 -1087z"/>
<path d="M2120 2920 l0 -610 60 0 60 0 -2 608 -3 607 -57 3 -58 3 0 -611z"/>
<path d="M4090 2920 l0 -610 60 0 60 0 0 255 0 255 173 0 c253 0 344 25 433
116 58 60 85 134 85 234 0 90 -6 119 -37 181 -45 90 -146 152 -275 169 -41 5
-170 10 -286 10 l-213 0 0 -610z m566 474 c93 -46 130 -121 122 -244 -8 -107
-56 -176 -148 -210 -22 -8 -106 -15 -227 -18 l-193 -4 0 257 0 258 194 -5
c190 -4 195 -5 252 -34z"/>
<path d="M5289 2920 l-226 -610 61 0 61 0 59 168 c32 92 68 191 78 220 l20 52
240 -2 241 -3 77 -215 77 -215 62 -3 c57 -3 62 -1 57 15 -3 10 -102 284 -219
608 l-213 590 -75 3 -75 3 -225 -611z m400 211 l98 -281 -203 0 c-112 0 -204
3 -204 6 0 14 203 564 207 561 2 -2 48 -131 102 -286z"/>
<path d="M6362 3053 c3 -472 3 -479 26 -535 69 -172 263 -262 493 -230 196 28
313 137 339 317 5 39 10 263 10 498 l0 428 -57 -3 -58 -3 -5 -470 c-6 -535 -3
-520 -93 -602 -61 -57 -131 -77 -247 -71 -139 6 -218 56 -268 166 -15 33 -18
93 -22 507 l-5 470 -58 3 -58 3 3 -478z"/>
<path d="M7610 2920 l0 -610 395 0 395 0 0 45 0 45 -335 0 -335 0 -2 563 -3
562 -57 3 -58 3 0 -611z"/>
<path d="M8550 3523 c0 -5 95 -170 210 -366 l210 -358 0 -245 0 -244 60 0 60
0 0 244 0 244 203 343 c112 189 209 354 216 367 12 22 11 22 -53 22 l-65 0
-177 -311 c-117 -205 -180 -306 -185 -297 -5 7 -86 146 -181 308 l-173 295
-63 3 c-34 2 -62 -1 -62 -5z"/>
<path d="M2610 3340 l0 -100 -60 0 -60 0 0 -45 0 -45 60 0 60 0 0 -365 c0
-311 2 -370 16 -405 27 -68 103 -99 209 -85 l55 6 0 46 0 45 -37 -6 c-21 -3
-54 0 -73 7 -56 19 -59 39 -59 420 l-1 337 90 0 90 0 0 45 0 45 -90 0 -90 0 0
100 0 100 -55 0 -55 0 0 -100z"/>
<path d="M3343 3260 c-63 -13 -117 -45 -160 -94 -45 -51 -63 -101 -63 -172 1
-130 90 -207 309 -269 52 -14 108 -33 125 -42 136 -68 143 -217 14 -281 -37
-19 -64 -24 -122 -24 -136 1 -215 60 -241 180 -7 32 -7 32 -66 32 -32 0 -59
-4 -59 -9 0 -5 9 -39 21 -76 27 -88 96 -162 184 -195 84 -32 235 -33 315 -2
119 47 174 121 174 237 0 145 -79 220 -296 281 -189 54 -238 94 -238 192 0 92
71 152 182 152 37 0 79 -5 95 -11 55 -20 101 -79 127 -161 4 -15 17 -18 66
-18 33 0 60 2 60 4 0 2 -9 34 -21 71 -26 85 -97 162 -174 189 -59 21 -174 29
-232 16z"/>
<path d="M10424 3260 c-108 -23 -228 -116 -283 -220 -77 -145 -80 -375 -7
-535 92 -201 348 -281 563 -175 92 45 171 145 190 241 l6 30 -58 -3 -58 -3
-14 -42 c-19 -56 -93 -137 -144 -157 -25 -10 -70 -17 -112 -17 -58 0 -80 5
-126 28 -63 32 -121 100 -147 173 -25 69 -31 269 -10 350 43 168 188 269 343
241 101 -19 161 -72 198 -172 l23 -64 57 -3 58 -3 -7 42 c-18 111 -115 229
-223 269 -63 24 -186 34 -249 20z"/>
<path d="M11430 3256 c-207 -45 -340 -232 -340 -481 0 -265 149 -454 384 -487
147 -21 297 24 387 116 187 189 185 559 -3 747 -100 100 -265 141 -428 105z
m261 -119 c71 -36 128 -101 155 -177 25 -69 31 -262 9 -336 -32 -113 -111
-202 -207 -233 -20 -7 -67 -12 -103 -12 -115 0 -200 44 -260 134 -51 77 -68
159 -62 292 7 176 58 272 176 332 56 30 72 33 146 33 74 0 90 -3 146 -33z"/>
<path d="M12575 3263 c-79 -17 -137 -58 -170 -121 l-24 -47 -1 73 0 72 -55 0
-55 0 0 -465 0 -465 55 0 55 0 0 278 c0 307 8 381 48 462 37 75 87 112 156
118 107 9 165 -19 209 -102 21 -40 22 -52 25 -398 l3 -358 59 0 59 0 3 323 c5
363 10 396 76 469 46 51 85 68 157 68 93 0 145 -33 182 -115 16 -36 18 -79 21
-392 l3 -353 60 0 59 0 0 293 c0 325 -9 432 -41 506 -54 127 -195 187 -346
148 -72 -19 -114 -51 -157 -120 l-37 -59 -26 52 c-30 61 -84 104 -156 125 -48
14 -119 18 -162 8z"/>
<path d="M9694 2436 c-59 -50 -21 -146 57 -146 30 0 43 7 64 32 32 38 29 81
-11 116 -33 29 -76 28 -110 -2z"/>
</g>
</svg>
